All sex, Oral, Anal
-------------------

    Format : AVI
    Format/Info : Audio Video Interleave
    File size : 845 MiB
    Duration : 1h 36mn
    Overall bit rate : 1 223 Kbps
    Writing application : MEncoder Sherpya-SVN-r33216-4.2.5
    Writing library : MPlayer
  Video #0
    ID : 0
    Format : MPEG-4 Visual
    Format profile : Advanced Simple@L5
    Format settings, BVOP : Yes
    Format settings, QPel : No
    Format settings, GMC : No warppoints
    Format settings, Matrix : Default (H.263)
    Muxing mode : Packed bitstream
    Codec ID : XVID
    Codec ID/Hint : XviD
    Duration : 1h 36mn
    Bit rate : 1 018 Kbps
    Width : 384 pixels
    Height : 288 pixels
    Display aspect ratio : 4:3
    Frame rate : 25.000 fps
    Color space : YUV
    Chroma subsampling : 4:2:0
    Bit depth : 8 bits
    Scan type : Progressive
    Bits/(Pixel*Frame) : 0.368
    Stream size : 703 MiB (83%)
    Writing library : XviD 63
  Audio #1
    ID : 1
    Format : MPEG Audio
    Format version : Version 1
    Format profile : Layer 3
    Codec ID : 55
    Codec ID/Hint : MP3
    Duration : 1h 36mn
    Bit rate mode : Constant
    Bit rate : 192 Kbps
    Channel(s) : 2 channels
    Sampling rate : 48.0 KHz
    Video delay : 40ms
    Stream size : 133 MiB (16%)
    Alignment : Aligned on interleaves
    Interleave, duration : 24 ms (0.60 video frame)
    Interleave, preload duration : 504 ms
    Writing library : LAME3.98.4


Cover
-----
 
http://unhidefreepic.com/?v=1fb42336ba.jpg

screens
-------
 
http://unhidefreepic.com/?v=screenpgp.png
 
http://unhidefreepic.com/?v=screenzkz.png
 
http://unhidefreepic.com/?v=4230093t.jpg

